REM DIRINDEX 1\2\6,1\2\7,1\2\8,1\3\9,1\3\10,1\3\11,1\4\12,1\4\13,1\4\14,1\5\15,1\5\16,1\5\17,1\5\18
REM DIRNAME cjc019,folder01,folder02,folder03,folder04,folder05,folder06,folder07,folder08,folder09,folder10,folder11,folder12,folder13,folder14,folder15,folder16,folder17
TITLE ""
FILE "2Q_t_0477-0494.mp3" MP3
  TRACK 01 AUDIO
    TITLE "13:cjc019_3012"
    INDEX 01 00:00:00
  TRACK 02 AUDIO
    TITLE "0:"
    INDEX 01 00:01:03
  TRACK 03 AUDIO
    TITLE "14:cjc019_3013"
    INDEX 01 00:01:62
  TRACK 04 AUDIO
    TITLE "0:"
    INDEX 01 00:03:45
  TRACK 05 AUDIO
    TITLE "13:cjc019_3014"
    INDEX 01 00:04:27
  TRACK 06 AUDIO
    TITLE "0:"
    INDEX 01 00:05:40
  TRACK 07 AUDIO
    TITLE "14:cjc019_3015"
    INDEX 01 00:06:20
  TRACK 08 AUDIO
    TITLE "0:"
    INDEX 01 00:07:66
  TRACK 09 AUDIO
    TITLE "13:cjc019_3016"
    INDEX 01 00:08:48
  TRACK 10 AUDIO
    TITLE "0:"
    INDEX 01 00:09:69
  TRACK 11 AUDIO
    TITLE "14:cjc019_3017"
    INDEX 01 00:10:51
  TRACK 12 AUDIO
    TITLE "0:"
    INDEX 01 00:13:24
  TRACK 13 AUDIO
    TITLE "13:cjc019_3018"
    INDEX 01 00:14:06
  TRACK 14 AUDIO
    TITLE "0:"
    INDEX 01 00:15:27
  TRACK 15 AUDIO
    TITLE "14:cjc019_3019"
    INDEX 01 00:16:14
  TRACK 16 AUDIO
    TITLE "0:"
    INDEX 01 00:19:09
  TRACK 17 AUDIO
    TITLE "13:cjc019_3020"
    INDEX 01 00:19:62
  TRACK 18 AUDIO
    TITLE "0:"
    INDEX 01 00:21:06
  TRACK 19 AUDIO
    TITLE "14:cjc019_3021"
    INDEX 01 00:21:68
  TRACK 20 AUDIO
    TITLE "0:"
    INDEX 01 00:25:09
  TRACK 21 AUDIO
    TITLE "13:cjc019_3022"
    INDEX 01 00:25:64
  TRACK 22 AUDIO
    TITLE "0:"
    INDEX 01 00:27:10
  TRACK 23 AUDIO
    TITLE "14:cjc019_3023"
    INDEX 01 00:27:61
  TRACK 24 AUDIO
    TITLE "0:"
    INDEX 01 00:30:10
  TRACK 25 AUDIO
    TITLE "13:cjc019_3024"
    INDEX 01 00:30:57
  TRACK 26 AUDIO
    TITLE "0:"
    INDEX 01 00:32:00
  TRACK 27 AUDIO
    TITLE "14:cjc019_3025"
    INDEX 01 00:32:58
  TRACK 28 AUDIO
    TITLE "0:"
    INDEX 01 00:35:72
  TRACK 29 AUDIO
    TITLE "13:cjc019_3026"
    INDEX 01 00:36:52
  TRACK 30 AUDIO
    TITLE "0:"
    INDEX 01 00:37:69
  TRACK 31 AUDIO
    TITLE "14:cjc019_3027"
    INDEX 01 00:38:49
  TRACK 32 AUDIO
    TITLE "0:"
    INDEX 01 00:40:03
  TRACK 33 AUDIO
    TITLE "13:cjc019_3028"
    INDEX 01 00:40:58
  TRACK 34 AUDIO
    TITLE "0:"
    INDEX 01 00:41:69
  TRACK 35 AUDIO
    TITLE "14:cjc019_3029"
    INDEX 01 00:42:41
  TRACK 36 AUDIO
    TITLE "0:"
    INDEX 01 00:45:49
  TRACK 37 AUDIO
    TITLE "13:cjc019_3030"
    INDEX 01 00:46:23
  TRACK 38 AUDIO
    TITLE "0:"
    INDEX 01 00:47:27
  TRACK 39 AUDIO
    TITLE "14:cjc019_3031"
    INDEX 01 00:48:10
  TRACK 40 AUDIO
    TITLE "0:"
    INDEX 01 00:49:45
  TRACK 41 AUDIO
    TITLE "13:cjc019_3032"
    INDEX 01 00:50:25
  TRACK 42 AUDIO
    TITLE "0:"
    INDEX 01 00:51:48
  TRACK 43 AUDIO
    TITLE "14:cjc019_3033"
    INDEX 01 00:52:32
  TRACK 44 AUDIO
    TITLE "0:"
    INDEX 01 00:57:33
  TRACK 45 AUDIO
    TITLE "13:cjc019_3034"
    INDEX 01 00:58:20
  TRACK 46 AUDIO
    TITLE "0:"
    INDEX 01 00:59:30
  TRACK 47 AUDIO
    TITLE "14:cjc019_3035"
    INDEX 01 01:00:15
  TRACK 48 AUDIO
    TITLE "0:"
    INDEX 01 01:02:73
  TRACK 49 AUDIO
    TITLE "13:cjc019_3036"
    INDEX 01 01:03:53
  TRACK 50 AUDIO
    TITLE "0:"
    INDEX 01 01:04:60
  TRACK 51 AUDIO
    TITLE "14:cjc019_3037"
    INDEX 01 01:05:46
  TRACK 52 AUDIO
    TITLE "0:"
    INDEX 01 01:08:70
  TRACK 53 AUDIO
    TITLE "13:cjc019_3038"
    INDEX 01 01:09:42
  TRACK 54 AUDIO
    TITLE "0:"
    INDEX 01 01:11:09
  TRACK 55 AUDIO
    TITLE "14:cjc019_3039"
    INDEX 01 01:11:66
  TRACK 56 AUDIO
    TITLE "0:"
    INDEX 01 01:15:33
  TRACK 57 AUDIO
    TITLE "13:cjc019_3040"
    INDEX 01 01:16:16
  TRACK 58 AUDIO
    TITLE "0:"
    INDEX 01 01:17:30
  TRACK 59 AUDIO
    TITLE "14:cjc019_3041"
    INDEX 01 01:18:11
  TRACK 60 AUDIO
    TITLE "0:"
    INDEX 01 01:24:51
  TRACK 61 AUDIO
    TITLE "13:cjc019_3042"
    INDEX 01 01:25:25
  TRACK 62 AUDIO
    TITLE "0:"
    INDEX 01 01:26:48
  TRACK 63 AUDIO
    TITLE "14:cjc019_3043"
    INDEX 01 01:27:36
  TRACK 64 AUDIO
    TITLE "0:"
    INDEX 01 01:30:46
  TRACK 65 AUDIO
    TITLE "13:cjc019_3044"
    INDEX 01 01:31:26
  TRACK 66 AUDIO
    TITLE "0:"
    INDEX 01 01:32:39
  TRACK 67 AUDIO
    TITLE "14:cjc019_3045"
    INDEX 01 01:33:21
  TRACK 68 AUDIO
    TITLE "0:"
    INDEX 01 01:35:06
  TRACK 69 AUDIO
    TITLE "13:cjc019_3046"
    INDEX 01 01:35:59
  TRACK 70 AUDIO
    TITLE "0:"
    INDEX 01 01:36:70
  TRACK 71 AUDIO
    TITLE "14:cjc019_3047"
    INDEX 01 01:37:56
  TRACK 72 AUDIO
    TITLE "0:"
    INDEX 01 01:40:72
